<svg width="438" height="500" viewBox="0 0 438 500" fill="none" xmlns="http://www.w3.org/2000/svg">
<path id="icon_delete" d="M261.519 405.94H284.939C288.045 405.94 291.023 404.707 293.219 402.511C295.415 400.315 296.649 397.336 296.649 394.231V183.454C296.649 180.348 295.415 177.37 293.219 175.174C291.023 172.978 288.045 171.744 284.939 171.744H261.519C258.414 171.744 255.435 172.978 253.239 175.174C251.043 177.37 249.809 180.348 249.809 183.454V394.231C249.809 397.336 251.043 400.315 253.239 402.511C255.435 404.707 258.414 405.94 261.519 405.94ZM421.553 78.0655H341.136L307.958 22.7366C303.795 15.7986 297.905 10.0577 290.862 6.07307C283.82 2.08847 275.866 -0.00384803 267.774 5.3128e-06H169.392C161.304 -0.00047695 153.354 2.09344 146.315 6.07788C139.277 10.0623 133.39 15.8015 129.228 22.7366L96.0303 78.0655H15.6131C11.4722 78.0655 7.50099 79.7104 4.57297 82.6384C1.64495 85.5664 0 89.5377 0 93.6785L0 109.292C0 113.432 1.64495 117.404 4.57297 120.332C7.50099 123.26 11.4722 124.905 15.6131 124.905H31.2262V452.78C31.2262 465.202 36.161 477.116 44.9451 485.9C53.7292 494.684 65.6429 499.619 78.0654 499.619H359.101C371.524 499.619 383.437 494.684 392.221 485.9C401.005 477.116 405.94 465.202 405.94 452.78V124.905H421.553C425.694 124.905 429.666 123.26 432.594 120.332C435.522 117.404 437.167 113.432 437.167 109.292V93.6785C437.167 89.5377 435.522 85.5664 432.594 82.6384C429.666 79.7104 425.694 78.0655 421.553 78.0655ZM167.685 49.6789C168.206 48.8103 168.945 48.0921 169.827 47.5943C170.71 47.0966 171.707 46.8364 172.72 46.8393H264.447C265.458 46.8381 266.453 47.0991 267.334 47.5967C268.214 48.0944 268.951 48.8118 269.472 49.6789L286.51 78.0655H150.657L167.685 49.6789ZM359.101 452.78H78.0654V124.905H359.101V452.78ZM152.228 405.94H175.647C178.753 405.94 181.731 404.707 183.927 402.511C186.123 400.315 187.357 397.336 187.357 394.231V183.454C187.357 180.348 186.123 177.37 183.927 175.174C181.731 172.978 178.753 171.744 175.647 171.744H152.228C149.122 171.744 146.144 172.978 143.948 175.174C141.752 177.37 140.518 180.348 140.518 183.454V394.231C140.518 397.336 141.752 400.315 143.948 402.511C146.144 404.707 149.122 405.94 152.228 405.94Z" fill="black"/>
</svg>
