<svg width="469" height="417" viewBox="0 0 469 417" fill="none" xmlns="http://www.w3.org/2000/svg">
<path id="icon_edit" d="M327.544 280.871L353.597 254.817C357.668 250.746 364.752 253.596 364.752 259.458V377.84C364.752 399.415 347.247 416.92 325.671 416.92H39.0805C17.5048 416.92 0 399.415 0 377.84V91.249C0 69.6733 17.5048 52.1684 39.0805 52.1684H261.758C267.539 52.1684 270.47 59.1704 266.399 63.3227L240.345 89.3764C239.124 90.5976 237.496 91.249 235.705 91.249H39.0805V377.84H325.671V285.43C325.671 283.721 326.323 282.092 327.544 280.871ZM455.044 116.57L241.241 330.373L167.639 338.515C146.308 340.876 128.152 322.883 130.513 301.388L138.655 227.787L352.458 13.9835C371.102 -4.66117 401.227 -4.66117 419.79 13.9835L454.963 49.156C473.607 67.8007 473.607 98.0067 455.044 116.57ZM374.603 141.728L327.3 94.4243L176.025 245.78L170.082 298.946L223.248 293.002L374.603 141.728ZM427.362 76.838L392.19 41.6656C388.851 38.3274 383.396 38.3274 380.14 41.6656L354.982 66.8237L402.285 114.127L427.443 88.9693C430.7 85.5497 430.7 80.1762 427.362 76.838Z" fill="black"/>
</svg>
